<?xml version="1.0" standalone="no"?><!DOCTYPE svg PUBLIC "-//W3C//DTD SVG 1.1//EN" "http://www.w3.org/Graphics/SVG/1.1/DTD/svg11.dtd"><svg class="icon" width="200px" height="200.00px" viewBox="0 0 1024 1024" version="1.1" xmlns="http://www.w3.org/2000/svg"><path d="M406.285977 644.571429l276.571429-142.857143-276.571429-144.571429v287.428572z m105.714286-492.571429q96 0 185.428571 2.571429T828.571691 160l41.714286 2.285714q0.571429 0 9.714286 0.857143t13.142857 1.714286 13.428571 2.571428 16.285715 4.571429 16 7.428571 17.714285 11.142858 16.571429 15.142857q3.428571 3.428571 8.857143 10.571428t16.571428 33.428572 15.142858 57.714285q4.571429 36.571429 7.142857 78T1024.000263 450.285714v100.571429q0.571429 82.857143-10.285714 165.714286-4 31.428571-14.285715 56.857142t-18.285714 35.142858l-8 9.714285q-8 8.571429-16.571429 15.142857t-17.714285 10.857143-16 7.142857-16.285715 4.571429-13.714285 2.571429-13.142857 1.714285-9.428572 0.857143q-143.428571 10.857143-358.285714 10.857143-118.285714-1.142857-205.428572-3.714286T192.000263 864l-28-2.285714-20.571429-2.285715q-20.571429-2.857143-31.142857-5.714285t-29.142857-12-32.285714-23.428572q-3.428571-3.428571-8.857143-10.571428t-16.571429-33.428572T10.285977 716.571429q-4.571429-36.571429-7.142857-78T0.000263 573.714286V473.142857q-0.571429-82.857143 10.285714-165.714286 4-31.428571 14.285714-56.857142T42.857406 215.428571l8-9.714285q8-8.571429 16.571428-15.142857t17.714286-11.142858 16-7.428571 16.285714-4.571429 13.428572-2.571428 13.142857-1.714286 9.714286-0.857143q143.428571-10.285714 358.285714-10.285714z" fill="#2c2c2c" /></svg>